Coordinates
version=1
nRows=22
nColumns=24
inDegrees=yes

Units are S.I. units (second, meters, Newtons, ...)
Angles are in degrees.

endheader
time	pelvis_tilt	pelvis_list	pelvis_rotation	pelvis_tx	pelvis_ty	pelvis_tz	hip_flexion_r	hip_adduction_r	hip_rotation_r	knee_angle_r	ankle_angle_r	subtalar_angle_r	mtp_angle_r	hip_flexion_l	hip_adduction_l	hip_rotation_l	knee_angle_l	ankle_angle_l	subtalar_angle_l	mtp_angle_l	lumbar_extension	lumbar_bending	lumbar_rotation
      1.00800000	     -5.48229400	     -3.01292920	     -1.17308216	     -0.08088873	      1.03620479	      0.33522715	     -7.57828873	      5.86616474	     -2.76871451	    -10.83659734	     19.91891099	      4.43476871	      3.20786110	     31.60986087	     -2.95610106	     -0.96144044	     -5.30567683	      8.38730461	      8.25083294	      3.10480469	    -13.47857262	      7.28506750	      5.77638726
      1.01216667	     -5.41935108	     -2.98751242	     -1.25117615	     -0.07484246	      1.03538712	      0.33516849	     -7.75899493	      5.77879926	     -2.81375156	    -11.36691936	     20.09040561	      4.67744485	      3.28303854	     31.64491031	     -2.86790693	     -0.85622271	     -5.80656454	      8.30113102	      8.08104360	      3.12921383	    -13.50945931	      7.14439166	      5.76581500
      1.01633333	     -5.39010612	     -2.95650308	     -1.33179328	     -0.06874871	      1.03453098	      0.33511856	     -7.88949214	      5.68353523	     -2.86107394	    -11.93171034	     20.24339655	      4.92133874	      3.37616513	     31.71732345	     -2.77711227	     -0.73876783	     -6.37280135	      8.17615401	      7.88613222	      3.16260248	    -13.48744705	      6.99475830	      5.75018567
      1.02050000	     -5.31736136	     -2.90658921	     -1.42202706	     -0.06263142	      1.03381033	      0.33510628	     -8.05868615	      5.56643368	     -2.86932763	    -12.51246210	     20.37426348	      5.12190658	      3.46624764	     31.72970352	     -2.67724463	     -0.62409909	     -6.97253924	      8.02292721	      7.69366450	      3.19419999	    -13.53015325	      6.80582723	      5.72614462
      1.02466667	     -5.26774834	     -2.85487946	     -1.50307627	     -0.05646457	      1.03307120	      0.33505284	     -8.18235506	      5.43880155	     -2.95072380	    -13.14154624	     20.47906279	      5.40629905	      3.59449802	     31.77071118	     -2.56898651	     -0.48573680	     -7.62748213	      7.80228773	      7.43718729	      3.23786246	    -13.52453122	      6.62300107	      5.70307404
      1.02883333	     -5.23211983	     -2.80725281	     -1.57337423	     -0.05025692	      1.03234342	      0.33498561	     -8.28606465	      5.31540382	     -3.03572848	    -13.77776240	     20.51948500	      5.67454044	      3.78172263	     31.83035905	     -2.46207576	     -0.32595279	     -8.33170091	      7.53218501	      7.14884739	      3.30110820	    -13.48671243	      6.45448547	      5.67987920
      1.03300000	     -5.14226670	     -2.73080425	     -1.65384970	     -0.04403437	      1.03177559	      0.33494885	     -8.43735324	      5.15797124	     -3.07909217	    -14.43216417	     20.49165454	      5.85873552	      4.99447005	     31.79197478	     -2.32889303	     -0.08863825	     -8.99163461	      7.15739542	      6.69706278	      3.71660026	    -13.53688869	      6.22818886	      5.60392080
      1.03716667	     -5.15914447	     -2.68986285	     -1.75329916	     -0.03779155	      1.03103772	      0.33493020	     -8.44216510	      5.03653639	     -3.10125969	    -15.15885090	     20.49847314	      6.06951258	      5.09446601	     31.93017306	     -2.25582749	     -0.01206862	     -9.82006895	      6.89880666	      6.55327419	      3.73815367	    -13.43575243	      6.05274137	      5.60374392
      1.04133333	     -5.11703519	     -2.61313281	     -1.83813044	     -0.03149983	      1.03045563	      0.33487189	     -8.49367472	      4.86448188	     -3.20522384	    -15.91826769	     20.46914775	      6.38862602	      5.26136421	     31.97454454	     -2.13610352	      0.12582291	    -10.61177041	      6.53420345	      6.24591529	      3.76703585	    -13.40634865	      5.82699075	      5.56818429
      1.04550000	     -5.08546143	     -2.55319622	     -1.91171837	     -0.02520487	      1.02991421	      0.33478627	     -8.52997970	      4.71540411	     -3.25231327	    -16.67200128	     20.28034071	      6.52143885	      7.62227511	     32.01882324	     -2.02076531	      0.38703875	    -11.39793326	      6.12414825	      5.74623125	      4.17777874	    -13.35534496	      5.63590341	      5.49909163
      1.04966667	     -5.03832042	     -2.46475615	     -2.01293226	     -0.01887430	      1.02943634	      0.33475256	     -8.54343681	      4.51947876	     -3.33840945	    -17.51536555	     20.17833582	      6.83117949	      7.69057721	     32.06724474	     -1.91353261	      0.42697135	    -12.25543247	      5.75079901	      5.56509924	      4.17323015	    -13.33329896	      5.38680773	      5.47497383
      1.05383333	     -5.01789312	     -2.38655821	     -2.10397791	     -0.01253159	      1.02896713	      0.33466794	     -8.50596629	      4.33080983	     -3.43640951	    -18.39751602	     20.00534629	      7.12419347	      7.80370553	     32.13835129	     -1.80495156	      0.55638534	    -13.11483099	      5.36948778	      5.23992734	      4.16440407	    -13.26585226	      5.16134984	      5.43212131
      1.05800000	     -4.97457055	     -2.29484875	     -2.19507187	     -0.00617653	      1.02858732	      0.33457052	     -8.46798027	      4.11847251	     -3.54647135	    -19.32514942	     19.79395566	      7.42801935	      7.96914634	     32.17842970	     -1.68557662	      0.68101948	    -13.97504480	      4.98364683	      4.88643782	      4.14992681	    -13.22593773	      4.91652099	      5.38126774
      1.06216667	     -4.92273850	     -2.20908171	     -2.26478416	      0.00016298	      1.02825046	      0.33440103	     -8.40697823	      3.90463066	     -3.70828309	    -20.31281526	     19.58492773	      7.74391263	      8.29222460	     32.21586606	     -1.55791228	      0.85137953	    -14.85408924	      4.62768988	      4.49197680	      4.12074497	    -13.20279441	      4.69635695	      5.33230140
      1.06633333	     -4.88336231	     -2.11953819	     -2.36368163	      0.00653151	      1.02799323	      0.33428849	     -8.31738906	      3.68611046	     -3.77766533	    -21.30574361	     19.13700863	      7.91198069	     11.96150751	     32.24773252	     -1.44750808	      0.98162631	    -15.71152863	      4.26523300	      4.10458207	      3.76870939	    -13.15764917	      4.46221567	      5.25173030
      1.07050000	     -4.82647009	     -2.00883631	     -2.46584025	      0.01291514	      1.02778788	      0.33416258	     -8.20063782	      3.42560466	     -3.92316874	    -22.39883836	     18.80735839	      8.25616096	     12.03854759	     32.27509278	     -1.33249007	      0.98904241	    -16.61043640	      3.99877192	      3.90952509	      3.75032527	    -13.13294203	      4.18753279	      5.22314644
      1.07466667	     -4.77443534	     -1.90067681	     -2.56404760	      0.01928287	      1.02762871	      0.33399977	     -8.04700933	      3.16125478	     -4.06634373	    -23.54199170	     18.41211592	      8.58931678	     12.19374811	     32.29475002	     -1.21264232	      1.04396651	    -17.48619220	      3.73797465	      3.62923746	      3.71493872	    -13.10281717	      3.92760482	      5.17312225
      1.07883333	     -4.71915155	     -1.78032980	     -2.66653766	      0.02566043	      1.02753292	      0.33382863	     -7.86408262	      2.87380733	     -4.21164719	    -24.73958788	     17.96191670	      8.91689640	     12.41862010	     32.29741548	     -1.08555648	      1.07787216	    -18.34289654	      3.51369329	      3.36523988	      3.66389494	    -13.07204979	      3.65785227	      5.11891265
      1.08300000	     -4.65742700	     -1.65521571	     -2.77475259	      0.03204846	      1.02751564	      0.33367810	     -7.66475713	      2.58014779	     -4.32072938	    -25.96563430	     17.39929099	      9.22238997	     12.62117760	     32.27842807	     -0.96234873	      1.08024786	    -19.17669333	      3.34172156	      3.16343712	      3.61706087	    -13.04837331	      3.35227575	      5.05963011
      1.08716667	     -4.60021976	     -1.53688595	     -2.87199403	      0.03838437	      1.02752241	      0.33344187	     -7.41331353	      2.27555052	     -4.48529520	    -27.26240040	     16.76728617	      9.46330047	     16.82932909	     32.25669148	     -0.83019110	      1.12386766	    -19.99485344	      3.21553530	      2.88115237	      2.67284080	    -13.02420201	      3.11088305	      4.98913513
      1.09133333	     -4.51574321	     -1.39333925	     -2.98195780	      0.04473234	      1.02763123	      0.33327282	     -7.16455920	      1.94305174	     -4.60625257	    -28.60505861	     16.12534933	      9.74927310	     16.86742130	     32.18722201	     -0.69497152	      1.07098165	    -20.78013191	      3.15356677	      2.77024902	      2.66059295	    -13.03136783	      2.78821102	      4.94093970
      1.09550000	     -4.43944943	     -1.24823838	     -3.08290140	      0.05103142	      1.02773964	      0.33302300	     -6.85561802	      1.58759288	     -4.79004759	    -30.03802226	     15.52466268	     10.10411088	     16.97991428	     32.11658615	     -0.54693277	      1.02849393	    -21.54201492	      3.11216771	      2.60799241	      2.62868209	    -13.02521121	      2.50940934	      4.89597700
